<?xml version="1.0" encoding="us-ascii" standalone="no"?><svg xmlns="http://www.w3.org/2000/svg" xmlns:xlink="http://www.w3.org/1999/xlink" contentStyleType="text/css" height="247px" preserveAspectRatio="none" style="width:394px;height:247px;background:#FFFFFF;" version="1.1" viewBox="0 0 394 247" width="394px" zoomAndPan="magnify"><defs/><g><text fill="#888888" font-family="sans-serif" font-size="10" lengthAdjust="spacing" textLength="59" x="332" y="10.69">ADE / IOI / II</text><text fill="#000000" font-family="sans-serif" font-size="14" font-weight="bold" lengthAdjust="spacing" textLength="259" x="66" y="39.5859">Direcci&#243;n de sistemas de informaci&#243;n</text><text fill="#000000" font-family="sans-serif" font-size="10" lengthAdjust="spacing" textLength="6" x="5" y="81.3779">6</text><text fill="#000000" font-family="sans-serif" font-size="10" lengthAdjust="spacing" textLength="6" x="33" y="81.3779">7</text><text fill="#000000" font-family="sans-serif" font-size="10" lengthAdjust="spacing" textLength="6" x="61" y="81.3779">8</text><text fill="#000000" font-family="sans-serif" font-size="10" lengthAdjust="spacing" textLength="6" x="89" y="81.3779">9</text><text fill="#000000" font-family="sans-serif" font-size="10" lengthAdjust="spacing" textLength="12" x="117" y="81.3779">10</text><text fill="#000000" font-family="sans-serif" font-size="10" lengthAdjust="spacing" textLength="12" x="145" y="81.3779">11</text><text fill="#000000" font-family="sans-serif" font-size="10" lengthAdjust="spacing" textLength="12" x="173" y="81.3779">12</text><text fill="#000000" font-family="sans-serif" font-size="10" lengthAdjust="spacing" textLength="12" x="201" y="81.3779">13</text><text fill="#000000" font-family="sans-serif" font-size="10" lengthAdjust="spacing" textLength="12" x="229" y="81.3779">14</text><text fill="#000000" font-family="sans-serif" font-size="10" lengthAdjust="spacing" textLength="12" x="257" y="81.3779">15</text><text fill="#000000" font-family="sans-serif" font-size="10" lengthAdjust="spacing" textLength="12" x="285" y="81.3779">16</text><text fill="#000000" font-family="sans-serif" font-size="10" lengthAdjust="spacing" textLength="12" x="313" y="81.3779">17</text><text fill="#000000" font-family="sans-serif" font-size="10" lengthAdjust="spacing" textLength="12" x="341" y="81.3779">18</text><text fill="#000000" font-family="sans-serif" font-size="10" lengthAdjust="spacing" textLength="12" x="369" y="81.3779">19</text><line style="stroke:#C0C0C0;stroke-width:1.0;" x1="0" x2="0" y1="70.6879" y2="230.5611"/><line style="stroke:#C0C0C0;stroke-width:1.0;" x1="28" x2="28" y1="70.6879" y2="230.5611"/><line style="stroke:#C0C0C0;stroke-width:1.0;" x1="56" x2="56" y1="70.6879" y2="230.5611"/><line style="stroke:#C0C0C0;stroke-width:1.0;" x1="84" x2="84" y1="70.6879" y2="230.5611"/><line style="stroke:#C0C0C0;stroke-width:1.0;" x1="112" x2="112" y1="70.6879" y2="230.5611"/><line style="stroke:#C0C0C0;stroke-width:1.0;" x1="140" x2="140" y1="70.6879" y2="230.5611"/><line style="stroke:#C0C0C0;stroke-width:1.0;" x1="168" x2="168" y1="70.6879" y2="230.5611"/><line style="stroke:#C0C0C0;stroke-width:1.0;" x1="196" x2="196" y1="70.6879" y2="230.5611"/><line style="stroke:#C0C0C0;stroke-width:1.0;" x1="224" x2="224" y1="70.6879" y2="230.5611"/><line style="stroke:#C0C0C0;stroke-width:1.0;" x1="252" x2="252" y1="70.6879" y2="230.5611"/><line style="stroke:#C0C0C0;stroke-width:1.0;" x1="280" x2="280" y1="70.6879" y2="230.5611"/><line style="stroke:#C0C0C0;stroke-width:1.0;" x1="308" x2="308" y1="70.6879" y2="230.5611"/><line style="stroke:#C0C0C0;stroke-width:1.0;" x1="336" x2="336" y1="70.6879" y2="230.5611"/><line style="stroke:#C0C0C0;stroke-width:1.0;" x1="364" x2="364" y1="70.6879" y2="230.5611"/><line style="stroke:#C0C0C0;stroke-width:1.0;" x1="392" x2="392" y1="70.6879" y2="230.5611"/><line style="stroke:#C0C0C0;stroke-width:1.0;" x1="0" x2="0" y1="54.6879" y2="70.6879"/><line style="stroke:#C0C0C0;stroke-width:1.0;" x1="104" x2="104" y1="54.6879" y2="70.6879"/><text fill="#000000" font-family="sans-serif" font-size="12" font-weight="bold" lengthAdjust="spacing" textLength="53" x="25.5" y="67.516">Feb 2025</text><line style="stroke:#C0C0C0;stroke-width:1.0;" x1="228" x2="228" y1="54.6879" y2="70.6879"/><text fill="#000000" font-family="sans-serif" font-size="12" font-weight="bold" lengthAdjust="spacing" textLength="54" x="139" y="67.516">Mar 2025</text><line style="stroke:#C0C0C0;stroke-width:1.0;" x1="348" x2="348" y1="54.6879" y2="70.6879"/><text fill="#000000" font-family="sans-serif" font-size="12" font-weight="bold" lengthAdjust="spacing" textLength="52" x="262" y="67.516">Abr 2025</text><line style="stroke:#C0C0C0;stroke-width:1.0;" x1="392" x2="392" y1="54.6879" y2="70.6879"/><text fill="#000000" font-family="sans-serif" font-size="12" font-weight="bold" lengthAdjust="spacing" textLength="25" x="357.5" y="67.516">May</text><line style="stroke:#C0C0C0;stroke-width:1.0;" x1="0" x2="392" y1="54.6879" y2="54.6879"/><line style="stroke:#C0C0C0;stroke-width:1.0;" x1="0" x2="392" y1="70.6879" y2="70.6879"/><line style="stroke:#C0C0C0;stroke-width:1.0;" x1="0" x2="392" y1="81.6879" y2="81.6879"/><rect fill="#E2E2F0" height="14.9819" style="stroke:none;stroke-width:1.0;" width="80" x="2" y="83.6879"/><line style="stroke:#181818;stroke-width:1.0;" x1="2" x2="82" y1="83.6879" y2="83.6879"/><line style="stroke:#181818;stroke-width:1.0;" x1="2" x2="82" y1="98.6698" y2="98.6698"/><line style="stroke:#181818;stroke-width:1.0;" x1="2" x2="2" y1="83.6879" y2="98.6698"/><line style="stroke:#181818;stroke-width:1.0;" x1="82" x2="82" y1="83.6879" y2="98.6698"/><rect fill="#E2E2F0" height="14.9819" style="stroke:none;stroke-width:1.0;" width="80" x="86" y="102.6698"/><line style="stroke:#181818;stroke-width:1.0;" x1="86" x2="166" y1="102.6698" y2="102.6698"/><line style="stroke:#181818;stroke-width:1.0;" x1="86" x2="166" y1="117.6517" y2="117.6517"/><line style="stroke:#181818;stroke-width:1.0;" x1="86" x2="86" y1="102.6698" y2="117.6517"/><line style="stroke:#181818;stroke-width:1.0;" x1="166" x2="166" y1="102.6698" y2="117.6517"/><rect fill="#E2E2F0" height="14.9819" style="stroke:none;stroke-width:1.0;" width="1" x="170" y="121.6517"/><line style="stroke:#181818;stroke-width:1.0;" x1="170" x2="171" y1="121.6517" y2="121.6517"/><line style="stroke:#181818;stroke-width:1.0;" x1="170" x2="171" y1="136.6336" y2="136.6336"/><line style="stroke:#181818;stroke-width:1.0;" x1="170" x2="170" y1="121.6517" y2="136.6336"/><line style="stroke:#181818;stroke-width:1.0;" x1="171" x2="171" y1="121.6517" y2="136.6336"/><line style="stroke:#181818;stroke-width:1.0;" x1="0" x2="5" y1="156.1245" y2="156.1245"/><line style="stroke:#181818;stroke-width:1.0;" x1="85" x2="391" y1="156.1245" y2="156.1245"/><rect fill="#E2E2F0" height="14.9819" style="stroke:none;stroke-width:1.0;" width="80" x="174" y="175.6155"/><line style="stroke:#181818;stroke-width:1.0;" x1="174" x2="254" y1="175.6155" y2="175.6155"/><line style="stroke:#181818;stroke-width:1.0;" x1="174" x2="254" y1="190.5973" y2="190.5973"/><line style="stroke:#181818;stroke-width:1.0;" x1="174" x2="174" y1="175.6155" y2="190.5973"/><line style="stroke:#181818;stroke-width:1.0;" x1="254" x2="254" y1="175.6155" y2="190.5973"/><rect fill="#E2E2F0" height="14.9819" style="stroke:none;stroke-width:1.0;" width="80" x="254" y="194.5973"/><line style="stroke:#181818;stroke-width:1.0;" x1="254" x2="334" y1="194.5973" y2="194.5973"/><line style="stroke:#181818;stroke-width:1.0;" x1="254" x2="334" y1="209.5792" y2="209.5792"/><line style="stroke:#181818;stroke-width:1.0;" x1="254" x2="254" y1="194.5973" y2="209.5792"/><line style="stroke:#181818;stroke-width:1.0;" x1="334" x2="334" y1="194.5973" y2="209.5792"/><rect fill="#E2E2F0" height="14.9819" style="stroke:none;stroke-width:1.0;" width="52" x="338" y="213.5792"/><line style="stroke:#181818;stroke-width:1.0;" x1="338" x2="390" y1="213.5792" y2="213.5792"/><line style="stroke:#181818;stroke-width:1.0;" x1="338" x2="390" y1="228.5611" y2="228.5611"/><line style="stroke:#181818;stroke-width:1.0;" x1="338" x2="338" y1="213.5792" y2="228.5611"/><line style="stroke:#181818;stroke-width:1.0;" x1="390" x2="390" y1="213.5792" y2="228.5611"/><text fill="#000000" font-family="sans-serif" font-size="11" lengthAdjust="spacing" textLength="37" x="6" y="95.4468">Tema 1</text><text fill="#000000" font-family="sans-serif" font-size="11" lengthAdjust="spacing" textLength="37" x="90" y="114.4287">Tema 2</text><text fill="#000000" font-family="sans-serif" font-size="11" lengthAdjust="spacing" textLength="35" x="174" y="133.4106">Parcial</text><text fill="#000000" font-family="sans-serif" font-size="11" lengthAdjust="spacing" textLength="70" x="10" y="160.3925">Segunda fase</text><text fill="#000000" font-family="sans-serif" font-size="11" lengthAdjust="spacing" textLength="37" x="178" y="187.3744">Tema 3</text><text fill="#000000" font-family="sans-serif" font-size="11" lengthAdjust="spacing" textLength="37" x="258" y="206.3563">Tema 4</text><text fill="#000000" font-family="sans-serif" font-size="11" lengthAdjust="spacing" textLength="37" x="342" y="225.3381">Tema 5</text><text fill="#888888" font-family="sans-serif" font-size="10" lengthAdjust="spacing" textLength="42" x="174.5" y="241.2511">Planning</text><!--SRC=[TP9DRjim48NtSufP9YYKMZyE0gtIHavXrqQCniccw68iZIIsCfcIGxS-Lu_GYvLoLSkBPYC8toCV7-RDhHEoqf0MWRKrNxaKF2A7qZAcqgAfiUQjzMGFc4oIANIa6qyD8pjuiKgBAwbZ_C7yhJj0goh6sXZPcfy0q39LRF5TCSEtE7-OzzyvG7yWu7Nmqaet0A8aU1JASbcgtxyq1XUddF2ENF-lT6tiZeuQmETDu1X_GSlVVRZZC3s-xmOb-P-o9bigwiwa62iwG1JX8pTULuGrESOe6bpIL_spLvNfcP8CoXXt66tnPZ86FR4aFijuebaofXbXEWOvmUjqp722DndSigx-DWpzlELfjSGzMwUCnlWgL9fTfHURrkCzRp6UXfBpR99FfdWts_IDPvTmyM6zt2VeZBSbOnLwiMhh9JXSmeBsX9-y5hNZ71zUM2-AZ_y0plHUMQDth0KMpwlnm7KMlLSI9cz35dnUGS4r-Kx2ZT9KOIToVDhSHpUm7DOjx_VjpWHVUyXnzlW7]--></g></svg>